<svg width="230" height="152" viewBox="0 0 230 152" fill="none" xmlns="http://www.w3.org/2000/svg">
<path d="M120.2 0.0517578C142.73 0.0517803 162.438 7.44173 176.552 20.7969C190.694 34.1785 198.881 53.2333 198.881 75.8584C198.881 85.5489 197.377 94.567 194.548 102.756C202.399 107.4 208.842 111.786 213.948 115.859C220.143 120.802 224.492 125.382 226.958 129.516C229.412 133.629 230.252 137.777 228.401 141.355C226.61 144.818 222.737 146.847 217.979 147.893C208.397 149.998 192.824 148.668 172.787 143.478C169.621 142.657 166.335 141.738 162.936 140.718C150.771 147.601 136.194 151.278 120.2 151.278C97.6771 151.278 78.4749 143.987 64.8809 130.666C57.8148 123.742 52.3785 115.3 48.7842 105.63C48.1632 105.666 47.5338 105.687 46.8965 105.687C32.4634 105.687 22.8252 96.2925 22.8252 81.791C22.8252 77.1365 23.8188 72.9953 25.6445 69.5166C13.4089 59.271 5.4965 50.0715 2.19824 42.7793C0.278458 38.5347 -0.329711 34.3558 1.50195 30.9775C3.3631 27.5458 7.21007 25.8971 11.9062 25.4766C20.657 24.693 34.601 27.918 53.4678 35.8604C56.5792 30.307 60.3976 25.2853 64.8672 20.8711C78.454 7.45274 97.6575 0.0518576 120.2 0.0517578ZM192.727 107.491C188.919 116.435 183.438 124.262 176.538 130.74C174.059 133.067 171.408 135.209 168.6 137.161C170.452 137.685 172.266 138.178 174.041 138.638C193.898 143.782 208.518 144.852 216.906 143.009C221.133 142.08 223.19 140.546 223.96 139.059C224.67 137.686 224.703 135.494 222.664 132.077C220.638 128.68 216.81 124.539 210.829 119.768C206.098 115.993 200.094 111.884 192.727 107.491ZM51.1758 40.3213C32.666 32.5636 19.7913 29.7901 12.3525 30.4561C8.36764 30.8129 6.59091 32.0827 5.89746 33.3613C5.17507 34.6939 5.0804 37.0186 6.75391 40.7188C9.57472 46.9553 16.7077 55.459 28.4814 65.3711C32.4524 60.8401 38.3193 58.1195 45.4561 57.7979C46.7126 51.5728 48.6346 45.7272 51.1758 40.3213Z" fill="white"/>
</svg>
